:SAMPLES-PER-SECOND 30
:FULLY-SPECIFIED
:DEGREES
96
root  47.0752 33.8397 2.98109 -35.5152 -86.3272 41.5577
RightUpLeg  -25.475 -6.17215 -4.82501
RightLeg  62.3066 1.00116 1.53254
RightFoot  -33.5818 1.06622 6.5893
RightToes  1.45519e-009 0 -3.6325e-017
Spine  34.652 -0.543511 1.96069
Spine1  3.904 0.635257 -3.13009
HEad  -38.4217 -3.07527 -2.41272
LeftShoulder1  0.569853 1.55435 -22.8967
LeftArm  2.82264 -21.2454 -65.0979
LeftForeArm  66.5948 -79.1539 -74.5229
LeftHand  0.044569 6.69263 6.53036
RightShoulder  0.10252 -3.145 24.5735
RightArm  14.8045 5.93338 50.5827
RightForeArm  154.404 72.8339 146.426
RightHand  -0.0906426 4.70426 -1.33628
LeftUpLeg  -50.1599 10.945 -5.77154
LeftLeg  46.27 1.26274 1.84137
LeftFoot  -3.1935 -0.353276 5.22161
LeftToes  -2.53752e-010 -2.07034e-011 -2.70101e-011
97
root  46.1706 34.047 3.27122 -28.1559 -86.0587 33.7893
RightUpLeg  -24.083 -6.35508 -5.57542
RightLeg  63.4156 1.5744 2.8636
RightFoot  -30.8224 1.52121 10.1043
RightToes  1.45519e-009 0 -3.6325e-017
Spine  34.7105 -0.340288 1.36788
Spine1  3.44395 0.689585 -3.05116
HEad  -37.2297 -3.09328 -2.51321
LeftShoulder1  0.545823 1.64903 -23.1084
LeftArm  3.07114 -21.0375 -64.6992
LeftForeArm  66.6234 -79.1564 -74.812
LeftHand  0.0641805 7.18953 6.21649
RightShoulder  0.0879504 -3.19412 24.8144
RightArm  15.0592 6.30078 50.5433
RightForeArm  152.938 73.0303 145.791
RightHand  -0.103135 5.05566 -1.45279
LeftUpLeg  -48.3678 10.2352 -5.43044
LeftLeg  47.2021 1.52747 2.20367
LeftFoot  -5.13589 -0.269993 5.53639
LeftToes  -2.53752e-010 -2.07034e-011 -2.70101e-011
98
root  45.238 34.3155 3.56649 -20.3604 -85.828 25.561
RightUpLeg  -23.3968 -6.45491 -6.15241
RightLeg  65.2152 1.83855 3.74111
RightFoot  -25.7997 1.54207 13.5063
RightToes  1.45519e-009 0 -3.6325e-017
Spine  34.1409 -0.279529 1.33878
Spine1  3.43537 0.84433 -3.51268
HEad  -36.1391 -3.26519 -2.26246
LeftShoulder1  0.504467 1.78625 -23.0446
LeftArm  3.51687 -20.9217 -64.2136
LeftForeArm  66.9546 -79.1718 -74.7768
LeftHand  0.0124699 6.03495 6.84667
RightShoulder  0.0711919 -3.24991 25.1526
RightArm  15.0553 6.87133 50.4427
RightForeArm  152.127 73.0674 145.579
RightHand  -0.0851375 5.69311 -1.21057
LeftUpLeg  -46.254 9.36236 -4.87038
LeftLeg  47.7149 1.84384 2.61313
LeftFoot  -7.02865 -0.167026 5.56404
LeftToes  -2.53752e-010 -2.07034e-011 -2.70101e-011
99
root  44.35 34.6098 3.81857 -16.2362 -85.4305 20.8306
RightUpLeg  -23.4896 -6.64064 -6.80942
RightLeg  67.6909 1.67418 3.79227
RightFoot  -18.8828 0.89269 15.5237
RightToes  1.45519e-009 0 -3.6325e-017
Spine  33.9441 -0.0773881 1.07275
Spine1  3.03489 1.01093 -3.74323
HEad  -35.4674 -3.29855 -1.89552
LeftShoulder1  0.485772 1.83739 -22.8133
LeftArm  3.60015 -20.5378 -63.7681
LeftForeArm  68.2831 -79.2346 -76.4231
LeftHand  0.0376568 6.66362 6.03649
RightShoulder  -0.00720463 -3.49976 25.4109
RightArm  15.1888 6.75406 50.9153
RightForeArm  154.208 72.6776 146.702
RightHand  -0.0286371 5.56645 -0.624513
LeftUpLeg  -43.7269 8.40187 -4.46908
LeftLeg  47.6782 2.18912 3.01677
LeftFoot  -8.54951 -0.0855674 5.60854
LeftToes  -2.53752e-010 -2.07034e-011 -2.70101e-011
100
root  43.4548 34.898 4.03807 -12.4183 -85.1926 16.7433
RightUpLeg  -24.8542 -6.66371 -7.0873
RightLeg  70.7108 1.26239 3.18954
RightFoot  -10.1537 -0.166162 14.7929
RightToes  1.45519e-009 0 -3.6325e-017
Spine  33.3244 0.228533 0.903721
Spine1  2.71477 1.27679 -3.79475
HEad  -35.2167 -3.2787 -1.50655
LeftShoulder1  0.482077 1.85249 -22.8652
LeftArm  3.77796 -19.9545 -63.1412
LeftForeArm  71.4451 -79.3644 -79.1615
LeftHand  0.0146188 6.12107 6.39948
RightShoulder  -0.0423486 -3.61026 25.5247
RightArm  15.1251 6.6425 51.3022
RightForeArm  154.783 72.3448 147.43
RightHand  -0.0151343 5.60818 -0.481059
LeftUpLeg  -41.4841 7.44684 -3.99307
LeftLeg  47.485 2.63294 3.5156
LeftFoot  -10.16 0.00628443 5.26979
LeftToes  -2.53752e-010 -2.07034e-011 -2.70101e-011
101
root  42.6091 35.1229 4.21716 -12.6628 -84.7373 16.3568
RightUpLeg  -26.366 -6.81652 -7.43969
RightLeg  73.7003 0.997067 2.87201
RightFoot  -2.82765 -0.835889 10.5679
RightToes  1.45519e-009 0 -3.6325e-017
Spine  33.2886 0.282094 0.443643
Spine1  2.40547 1.27367 -4.1802
HEad  -35.7526 -3.09919 -1.08992
LeftShoulder1  0.41207 2.10537 -23.1357
LeftArm  3.64626 -19.9125 -62.2965
LeftForeArm  73.1115 -79.4254 -80.3493
LeftHand  0.0190979 6.266 6.0255
RightShoulder  -0.019905 -3.53891 25.7305
RightArm  15.2085 6.70849 51.7702
RightForeArm  154.964 72.1181 147.878
RightHand  -0.0173168 5.54928 -0.502105
LeftUpLeg  -38.9783 6.43659 -3.84092
LeftLeg  47.334 3.0409 3.97266
LeftFoot  -11.7348 0.0875135 4.80004
LeftToes  -2.53752e-010 -2.07034e-011 -2.70101e-011
102
root  41.8001 35.3625 4.36088 -13.7253 -84.9491 17.154
RightUpLeg  -28.4142 -5.91544 -7.33819
RightLeg  75.4196 1.12077 3.81544
RightFoot  -4.04656 -0.654436 9.75149
RightToes  1.45519e-009 0 -3.6325e-017
Spine  32.7496 0.557292 0.176297
Spine1  2.58228 1.65506 -4.8147
HEad  -35.6908 -3.3844 -1.23536
LeftShoulder1  0.353668 2.30051 -23.06
LeftArm  3.52106 -19.845 -61.9433
LeftForeArm  73.6956 -79.4411 -81.0401
LeftHand  0.0497298 6.78366 6.55028
RightShoulder  -0.0211297 -3.54351 25.5014
RightArm  15.2016 6.72466 52.5992
RightForeArm  155.32 71.9694 148.202
RightHand  -0.0320869 5.92058 -0.660094
LeftUpLeg  -36.81 6.52269 -3.73423
LeftLeg  46.9011 3.21001 4.10986
LeftFoot  -13.1279 0.150123 4.57276
LeftToes  -2.53752e-010 -2.07034e-011 -2.70101e-011
103
root  41.0124 35.5873 4.52497 -14.0227 -84.4609 17.1005
RightUpLeg  -30.5682 -6.01719 -7.42038
RightLeg  75.4682 1.53343 5.64661
RightFoot  -5.99381 -0.44396 8.67827
RightToes  1.45519e-009 0 -3.6325e-017
Spine  32.6409 0.472066 -0.0915895
Spine1  2.65062 1.50545 -4.72493
HEad  -36.2723 -3.43383 -1.25367
LeftShoulder1  0.332912 2.37769 -23.2493
LeftArm  3.14372 -19.4337 -61.7778
LeftForeArm  73.9607 -79.4482 -81.3279
LeftHand  0.0309334 6.33766 6.8975
RightShoulder  -0.0496825 -3.63373 25.3153
RightArm  15.2906 6.92273 53.075
RightForeArm  155.846 71.7702 148.634
RightHand  -0.00051238 6.05682 -0.33763
LeftUpLeg  -34.5174 5.71069 -3.77819
LeftLeg  46.2594 3.51843 4.36946
LeftFoot  -14.3424 0.197713 4.24927
LeftToes  -2.53752e-010 -2.07034e-011 -2.70101e-011
104
root  40.2649 35.7612 4.65682 -12.6355 -84.1051 15.4631
RightUpLeg  -33.0471 -6.45674 -7.07257
RightLeg  73.4879 1.73242 5.66386
RightFoot  -7.05585 -0.387203 9.01736
RightToes  1.45519e-009 0 -3.6325e-017
Spine  32.7224 0.329272 -0.394393
Spine1  2.44614 1.21579 -4.27688
HEad  -36.1384 -3.03666 -1.98364
LeftShoulder1  0.314211 2.45034 -23.5314
LeftArm  2.42953 -18.9691 -61.5314
LeftForeArm  74.4705 -79.4672 -81.5643
LeftHand  -0.00894718 5.65265 6.54806
RightShoulder  -0.0138955 -3.5216 24.9359
RightArm  15.6052 6.95175 53.2353
RightForeArm  157.005 71.4395 149.375
RightHand  0.0129919 5.88461 -0.196078
LeftUpLeg  -32.5666 5.52775 -3.6653
LeftLeg  45.8171 3.43424 4.2141
LeftFoot  -15.5946 0.246002 4.0947
LeftToes  -2.53752e-010 -2.07034e-011 -2.70101e-011
105
root  39.5272 35.9387 4.78147 -8.95569 -83.8937 11.4582
RightUpLeg  -35.5122 -7.38621 -6.23238
RightLeg  69.4937 1.73991 4.41527
RightFoot  -8.01562 -0.296917 8.34457
RightToes  1.45519e-009 0 -3.6325e-017
Spine  32.7384 0.0929539 -0.0425524
Spine1  2.75685 1.08989 -4.09376
HEad  -36.4579 -3.28496 -1.55206
LeftShoulder1  0.356408 2.29364 -23.1228
LeftArm  1.82504 -18.6879 -62.0182
LeftForeArm  74.0543 -79.455 -81.1873
LeftHand  0.0118385 6.0608 6.44718
RightShoulder  -0.0784398 -3.7274 25.0838
RightArm  15.6504 7.25438 52.9923
RightForeArm  157.006 71.0669 149.992
RightHand  -0.0241246 6.06776 -0.576885
LeftUpLeg  -30.5745 5.4943 -3.21496
LeftLeg  45.3578 3.35858 4.06704
LeftFoot  -16.8084 0.285139 3.86467
LeftToes  -2.53752e-010 -2.07034e-011 -2.70101e-011
